<svg xmlns="http://www.w3.org/2000/svg" viewBox="0 0 760 480" font-family="'Hiragino Sans','Noto Sans JP','Yu Gothic',Meiryo,sans-serif">
<rect width="760" height="480" rx="12" fill="#ffffff"/>
<text x="24" y="36" font-size="20" font-weight="bold" fill="#1f2328">thinking オンでも正答数は同じ（5/5）。時間は約3.6倍</text>
<text x="24" y="58" font-size="13" fill="#57606a">1問あたりの回答時間（秒）。Gemma 4 31B（4bit）/ Colab L4 / 約6.1トークン/秒</text>
<g font-size="12">
<rect x="480" y="72" width="14" height="12" fill="#8c959f"/><text x="500" y="82" fill="#1f2328">thinking オフ</text>
<rect x="600" y="72" width="14" height="12" fill="#0969da"/><text x="620" y="82" fill="#1f2328">thinking オン</text>
</g>
<text x="24" y="122" font-size="14" fill="#1f2328">Q1 方程式</text>
<text x="24" y="140" font-size="11" fill="#57606a">両方 ○ 正解 / 思考 308 トークン</text>
<rect x="200" y="106" width="58" height="16" rx="3" fill="#8c959f"/>
<text x="264" y="119" font-size="12" fill="#57606a">19.4秒</text>
<rect x="200" y="126" width="258" height="16" rx="3" fill="#0969da"/>
<text x="464" y="139" font-size="12" fill="#0969da" font-weight="bold">86.0秒</text>
<text x="24" y="180" font-size="14" fill="#1f2328">Q2 3でも5でも割れない数</text>
<text x="24" y="198" font-size="11" fill="#57606a">両方 ○ 正解 / 思考 669 トークン</text>
<rect x="200" y="164" width="136" height="16" rx="3" fill="#8c959f"/>
<text x="342" y="177" font-size="12" fill="#57606a">45.2秒</text>
<rect x="200" y="184" width="484" height="16" rx="3" fill="#0969da"/>
<text x="690" y="197" font-size="12" fill="#0969da" font-weight="bold">161.4秒</text>
<text x="24" y="238" font-size="14" fill="#1f2328">Q3 strawberry の r</text>
<text x="24" y="256" font-size="11" fill="#57606a">両方 ○ 正解 / 思考 196 トークン</text>
<rect x="200" y="222" width="23" height="16" rx="3" fill="#8c959f"/>
<text x="229" y="235" font-size="12" fill="#57606a">7.6秒</text>
<rect x="200" y="242" width="111" height="16" rx="3" fill="#0969da"/>
<text x="317" y="255" font-size="12" fill="#0969da" font-weight="bold">36.9秒</text>
<text x="24" y="296" font-size="14" fill="#1f2328">Q4 並び方</text>
<text x="24" y="314" font-size="11" fill="#57606a">両方 ○ 正解 / 思考 491 トークン</text>
<rect x="200" y="280" width="116" height="16" rx="3" fill="#8c959f"/>
<text x="322" y="293" font-size="12" fill="#57606a">38.8秒</text>
<rect x="200" y="300" width="366" height="16" rx="3" fill="#0969da"/>
<text x="572" y="313" font-size="12" fill="#0969da" font-weight="bold">122.0秒</text>
<text x="24" y="354" font-size="14" fill="#1f2328">Q5 時計の角度</text>
<text x="24" y="372" font-size="11" fill="#57606a">両方 ○ 正解 / 思考 578 トークン</text>
<rect x="200" y="338" width="132" height="16" rx="3" fill="#8c959f"/>
<text x="338" y="351" font-size="12" fill="#57606a">44.0秒</text>
<rect x="200" y="358" width="448" height="16" rx="3" fill="#0969da"/>
<text x="654" y="371" font-size="12" fill="#0969da" font-weight="bold">149.5秒</text>
<line x1="200" y1="96" x2="200" y2="390" stroke="#d0d7de"/>
<rect x="24" y="408" width="712" height="54" rx="8" fill="#f6f8fa" stroke="#d0d7de"/>
<text x="40" y="430" font-size="14" fill="#1f2328">平均: オフ <tspan font-weight="bold">31.0秒 / 188トークン</tspan>　→　オン <tspan font-weight="bold" fill="#0969da">111.2秒 / 680トークン</tspan></text>
<text x="40" y="450" font-size="12" fill="#57606a">速度はどちらも約6.1トークン/秒。時間が伸びたのは「書く量（思考）」が増えたから。VRAM ピーク 18.2GB。</text>
</svg>
